<svg xmlns="http://www.w3.org/2000/svg" xmlns:xlink="http://www.w3.org/1999/xlink" version="1.1" width="1080" height="1080" viewBox="0 0 1080 1080" xml:space="preserve">
<desc>Created with Fabric.js 3.5.0</desc>
<defs>
</defs>
<rect x="0" y="0" width="100%" height="100%" fill="#ffffff"/>
<g transform="matrix(0.9621 0 0 0.9621 539.9945 539.9891)" id="970278">
<g style="" vector-effect="non-scaling-stroke">
		<g transform="matrix(1.0667 0 0 1.0667 -6.0882 142.2914)" id="path15911">
<path style="stroke: rgb(133,123,97); stroke-width: 7; stroke-dasharray: none; stroke-linecap: butt; stroke-dashoffset: 0; stroke-linejoin: round; stroke-miterlimit: 4; is-custom-font: none; font-file-url: none; fill: rgb(215,155,95); fill-rule: evenodd; opacity: 1;" transform=" translate(385.7143, -699.505)" d="m -594.28571 363.79078 l 62.85714 677.14282 l 300 -2.8571 l 54.28571 -680.00001 z" stroke-linecap="round"/>
</g>
		<g transform="matrix(1.0667 0 0 1.0667 -80.5943 347.0903)" id="path15921">
<path style="stroke: rgb(147,126,66); stroke-width: 3; stroke-dasharray: none; stroke-linecap: round; stroke-dashoffset: 0; stroke-linejoin: round; stroke-miterlimit: 4; is-custom-font: none; font-file-url: none; fill: rgb(86,70,58); fill-rule: nonzero; opacity: 1;" transform=" translate(455.558, -891.514)" d="m -467.97621 868.99711 a 25.714285 25.714285 0 0 1 34.92578 10.08171 a 25.714285 25.714285 0 0 1 -10.05535 34.93338 a 25.714285 25.714285 0 0 1 -34.94095 -10.02898 a 25.714285 25.714285 0 0 1 10.00259 -34.94851" stroke-linecap="round"/>
</g>
		<g transform="matrix(1.0667 0 0 1.0667 -63.6951 -16.1848)" id="path15913">
<path style="stroke: rgb(133,123,97); stroke-width: 7; stroke-dasharray: none; stroke-linecap: round; stroke-dashoffset: 0; stroke-linejoin: round; stroke-miterlimit: 4; is-custom-font: none; font-file-url: none; fill: rgb(137,180,128); fill-rule: evenodd; opacity: 1;" transform=" translate(439.7162, -550.9304)" d="m -502.85714 109.50506 l 57.14285 668.57143 l 11.42857 219.99995 c 0 0 74.30838 -2.85711 54.28572 -2.85709 l -42.85714 -648.57143 c 0 0 -10.16216 -244.30718 -22.85714 -242.85715 c -25.75394 2.94164 -57.14286 5.71429 -57.14286 5.71429 z" stroke-linecap="round"/>
</g>
		<g transform="matrix(1.0667 0 0 1.0667 -3.0467 363.2331)" id="path15931">
<path style="stroke: rgb(147,126,66); stroke-width: 3; stroke-dasharray: none; stroke-linecap: round; stroke-dashoffset: 0; stroke-linejoin: round; stroke-miterlimit: 4; is-custom-font: none; font-file-url: none; fill: rgb(86,70,58); fill-rule: nonzero; opacity: 1;" transform=" translate(382.8572, -906.6479)" d="m -395.2754 884.13096 a 25.714285 25.714285 0 0 1 34.92577 10.08171 a 25.714285 25.714285 0 0 1 -10.05535 34.93338 a 25.714285 25.714285 0 0 1 -34.94095 -10.02898 a 25.714285 25.714285 0 0 1 10.0026 -34.94851" stroke-linecap="round"/>
</g>
		<g transform="matrix(1.0667 0 0 1.0667 -53.0287 113.3385)" id="path15923">
<path style="stroke: rgb(114,106,85); stroke-width: 7; stroke-dasharray: none; stroke-linecap: butt; stroke-dashoffset: 0; stroke-linejoin: miter; stroke-miterlimit: 4; is-custom-font: none; font-file-url: none; fill: rgb(129,164,122); fill-rule: evenodd; opacity: 1;" transform=" translate(429.7162, -672.3622)" d="m -482.85714 358.07649 l 37.14285 420 l 11.42857 219.99995 c 0 0 74.30838 -2.85711 54.28572 -2.85709 l -42.85714 -648.57143 c 0 0 -1.60685 4.12942 -14.28571 5.71428 c -45.71429 5.71429 -45.71429 5.71429 -45.71429 5.71429 z" stroke-linecap="round"/>
</g>
		<g transform="matrix(1.0667 0 0 1.0667 0.0083 -229.5289)" id="rect15915">
<rect style="stroke: rgb(133,123,97); stroke-width: 7; stroke-dasharray: none; stroke-linecap: round; stroke-dashoffset: 0; stroke-linejoin: round; stroke-miterlimit: 4; is-custom-font: none; font-file-url: none; fill: rgb(214,214,214); fill-rule: nonzero; opacity: 1;" x="-242.85715" y="-18.57145" rx="9.9674988" ry="29.967501" width="485.7143" height="37.1429"/>
</g>
		<g transform="matrix(1.0667 0 0 1.0667 36.5723 302.2808)" id="path15917">
<path style="stroke: rgb(147,126,66); stroke-width: 3; stroke-dasharray: none; stroke-linecap: round; stroke-dashoffset: 0; stroke-linejoin: round; stroke-miterlimit: 4; is-custom-font: none; font-file-url: none; fill: rgb(86,70,58); fill-rule: nonzero; opacity: 1;" transform=" translate(345.7143, -849.505)" d="m -358.13252 826.98813 a 25.714285 25.714285 0 0 1 34.92578 10.08172 a 25.714285 25.714285 0 0 1 -10.05535 34.93337 a 25.714285 25.714285 0 0 1 -34.94096 -10.02897 a 25.714285 25.714285 0 0 1 10.0026 -34.94852" stroke-linecap="round"/>
</g>
		<g transform="matrix(1.0667 0 0 1.0667 69.2152 371.9474)" id="path15925">
<path style="stroke: rgb(147,126,66); stroke-width: 3; stroke-dasharray: none; stroke-linecap: round; stroke-dashoffset: 0; stroke-linejoin: round; stroke-miterlimit: 4; is-custom-font: none; font-file-url: none; fill: rgb(86,70,58); fill-rule: nonzero; opacity: 1;" transform=" translate(315.1116, -914.8175)" d="m -327.52982 892.30057 a 25.714285 25.714285 0 0 1 34.92577 10.08172 a 25.714285 25.714285 0 0 1 -10.05535 34.93337 a 25.714285 25.714285 0 0 1 -34.94095 -10.02897 a 25.714285 25.714285 0 0 1 10.00259 -34.94852" stroke-linecap="round"/>
</g>
		<g transform="matrix(1.0667 0 0 1.0667 137.1438 308.376)" id="path15927">
<path style="stroke: rgb(147,126,66); stroke-width: 3; stroke-dasharray: none; stroke-linecap: round; stroke-dashoffset: 0; stroke-linejoin: round; stroke-miterlimit: 4; is-custom-font: none; font-file-url: none; fill: rgb(86,70,58); fill-rule: nonzero; opacity: 1;" transform=" translate(251.4286, -855.2193)" d="m -263.84681 832.70237 a 25.714285 25.714285 0 0 1 34.92577 10.08171 a 25.714285 25.714285 0 0 1 -10.05535 34.93338 a 25.714285 25.714285 0 0 1 -34.94095 -10.02898 a 25.714285 25.714285 0 0 1 10.0026 -34.94851" stroke-linecap="round"/>
</g>
		<g transform="matrix(1.0667 0 0 1.0667 5.6676 402.8046)" id="path15929">
<path style="stroke: rgb(147,126,66); stroke-width: 3; stroke-dasharray: none; stroke-linecap: round; stroke-dashoffset: 0; stroke-linejoin: round; stroke-miterlimit: 4; is-custom-font: none; font-file-url: none; fill: rgb(86,70,58); fill-rule: nonzero; opacity: 1;" transform=" translate(374.6875, -943.7461)" d="m -387.10575 921.22922 a 25.714285 25.714285 0 0 1 34.92577 10.08172 a 25.714285 25.714285 0 0 1 -10.05535 34.93337 a 25.714285 25.714285 0 0 1 -34.94095 -10.02897 a 25.714285 25.714285 0 0 1 10.00259 -34.94852" stroke-linecap="round"/>
</g>
		<g transform="matrix(1.0667 0 0 1.0667 94.4771 457.7093)" id="path15933">
<path style="stroke: rgb(147,126,66); stroke-width: 3; stroke-dasharray: none; stroke-linecap: round; stroke-dashoffset: 0; stroke-linejoin: round; stroke-miterlimit: 4; is-custom-font: none; font-file-url: none; fill: rgb(86,70,58); fill-rule: nonzero; opacity: 1;" transform=" translate(291.4286, -995.2193)" d="m -303.84681 972.70237 a 25.714285 25.714285 0 0 1 34.92577 10.08171 a 25.714285 25.714285 0 0 1 -10.05535 34.93342 a 25.714285 25.714285 0 0 1 -34.94095 -10.029 a 25.714285 25.714285 0 0 1 10.0026 -34.94853" stroke-linecap="round"/>
</g>
		<g transform="matrix(1.0667 0 0 1.0667 131.0485 396.7569)" id="path15935">
<path style="stroke: rgb(147,126,66); stroke-width: 3; stroke-dasharray: none; stroke-linecap: round; stroke-dashoffset: 0; stroke-linejoin: round; stroke-miterlimit: 4; is-custom-font: none; font-file-url: none; fill: rgb(86,70,58); fill-rule: nonzero; opacity: 1;" transform=" translate(257.1429, -938.0764)" d="m -269.56111 915.55948 a 25.714285 25.714285 0 0 1 34.92578 10.08172 a 25.714285 25.714285 0 0 1 -10.05535 34.93337 a 25.714285 25.714285 0 0 1 -34.94095 -10.02897 a 25.714285 25.714285 0 0 1 10.00259 -34.94852" stroke-linecap="round"/>
</g>
		<g transform="matrix(1.0667 0 0 1.0667 16.9295 465.0903)" id="path15937">
<path style="stroke: rgb(147,126,66); stroke-width: 3; stroke-dasharray: none; stroke-linecap: round; stroke-dashoffset: 0; stroke-linejoin: round; stroke-miterlimit: 4; is-custom-font: none; font-file-url: none; fill: rgb(86,70,58); fill-rule: nonzero; opacity: 1;" transform=" translate(364.1295, -1002.139)" d="m -376.54768 979.62205 a 25.714285 25.714285 0 0 1 34.92578 10.08171 a 25.714285 25.714285 0 0 1 -10.05535 34.93334 a 25.714285 25.714285 0 0 1 -34.94096 -10.0289 a 25.714285 25.714285 0 0 1 10.0026 -34.94856" stroke-linecap="round"/>
</g>
		<g transform="matrix(1.0667 0 0 1.0667 -48.761 463.8045)" id="path15939">
<path style="stroke: rgb(147,126,66); stroke-width: 3; stroke-dasharray: none; stroke-linecap: round; stroke-dashoffset: 0; stroke-linejoin: round; stroke-miterlimit: 4; is-custom-font: none; font-file-url: none; fill: rgb(86,70,58); fill-rule: nonzero; opacity: 1;" transform=" translate(425.7143, -1000.9336)" d="m -438.13255 978.41666 a 25.714285 25.714285 0 0 1 34.92578 10.08172 a 25.714285 25.714285 0 0 1 -10.05535 34.93342 a 25.714285 25.714285 0 0 1 -34.94096 -10.029 a 25.714285 25.714285 0 0 1 10.0026 -34.94854" stroke-linecap="round"/>
</g>
		<g transform="matrix(1.0667 0 0 1.0667 -97.5229 427.2331)" id="path15941">
<path style="stroke: rgb(147,126,66); stroke-width: 3; stroke-dasharray: none; stroke-linecap: round; stroke-dashoffset: 0; stroke-linejoin: round; stroke-miterlimit: 4; is-custom-font: none; font-file-url: none; fill: rgb(86,70,58); fill-rule: nonzero; opacity: 1;" transform=" translate(471.4286, -966.6479)" d="m -483.84684 944.13096 a 25.714285 25.714285 0 0 1 34.92577 10.08171 a 25.714285 25.714285 0 0 1 -10.05535 34.93338 a 25.714285 25.714285 0 0 1 -34.94095 -10.02898 a 25.714285 25.714285 0 0 1 10.0026 -34.94851" stroke-linecap="round"/>
</g>
		<g transform="matrix(1.0667 0 0 1.0667 -143.3561 361.7571)" id="path15943">
<path style="stroke: rgb(147,126,66); stroke-width: 3; stroke-dasharray: none; stroke-linecap: round; stroke-dashoffset: 0; stroke-linejoin: round; stroke-miterlimit: 4; is-custom-font: none; font-file-url: none; fill: rgb(86,70,58); fill-rule: nonzero; opacity: 1;" transform=" translate(514.3972, -905.2641)" d="m -526.81544 882.74723 a 25.714285 25.714285 0 0 1 34.92577 10.08171 a 25.714285 25.714285 0 0 1 -10.05534 34.93338 a 25.714285 25.714285 0 0 1 -34.94096 -10.02898 a 25.714285 25.714285 0 0 1 10.0026 -34.94851" stroke-linecap="round"/>
</g>
		<g transform="matrix(1.0667 0 0 1.0667 -114.0225 458.5427)" id="path15945">
<path style="stroke: rgb(147,126,66); stroke-width: 3; stroke-dasharray: none; stroke-linecap: round; stroke-dashoffset: 0; stroke-linejoin: round; stroke-miterlimit: 4; is-custom-font: none; font-file-url: none; fill: rgb(86,70,58); fill-rule: nonzero; opacity: 1;" transform=" translate(486.8969, -996.0006)" d="m -499.31516 973.48368 a 25.714285 25.714285 0 0 1 34.92577 10.08171 a 25.714285 25.714285 0 0 1 -10.05535 34.93341 a 25.714285 25.714285 0 0 1 -34.94095 -10.029 a 25.714285 25.714285 0 0 1 10.00259 -34.94852" stroke-linecap="round"/>
</g>
		<g transform="matrix(1.0667 0 0 1.0667 -136.2843 296.1622)" id="path15947">
<path style="stroke: rgb(147,126,66); stroke-width: 3; stroke-dasharray: none; stroke-linecap: round; stroke-dashoffset: 0; stroke-linejoin: round; stroke-miterlimit: 4; is-custom-font: none; font-file-url: none; fill: rgb(86,70,58); fill-rule: nonzero; opacity: 1;" transform=" translate(507.7674, -843.7689)" d="m -520.18565 821.25199 a 25.714285 25.714285 0 0 1 34.92578 10.08172 a 25.714285 25.714285 0 0 1 -10.05535 34.93337 a 25.714285 25.714285 0 0 1 -34.94096 -10.02898 a 25.714285 25.714285 0 0 1 10.0026 -34.94851" stroke-linecap="round"/>
</g>
		<g transform="matrix(1.0667 0 0 1.0667 117.7625 334.1383)" id="path15949">
<path style="stroke: rgb(147,126,66); stroke-width: 3; stroke-dasharray: none; stroke-linecap: round; stroke-dashoffset: 0; stroke-linejoin: round; stroke-miterlimit: 4; is-custom-font: none; font-file-url: none; fill: rgb(86,70,58); fill-rule: nonzero; opacity: 1;" transform=" translate(269.5985, -879.3715)" d="m -282.0167 856.85459 a 25.714285 25.714285 0 0 1 34.92577 10.08172 a 25.714285 25.714285 0 0 1 -10.05535 34.93337 a 25.714285 25.714285 0 0 1 -34.94095 -10.02898 a 25.714285 25.714285 0 0 1 10.00259 -34.94851" stroke-linecap="round"/>
</g>
</g>
</g>
</svg>