<svg width="475" height="663" viewBox="0 0 475 663" fill="none" xmlns="http://www.w3.org/2000/svg">
<path d="M452.861 88.3634H425.248L365.603 8.83673C361.184 3.31361 354.557 0 347.929 0H127.023C120.395 0 113.768 3.31361 109.351 8.83673L49.7055 88.3634H22.0912C9.94084 88.3634 0 98.3043 0 110.455V154.636C0 166.786 9.94084 176.727 22.0912 176.727H34.0202L40.2151 245.553C38.0405 246.779 36.0472 248.474 34.2415 250.73C29.8238 255.148 27.6143 261.775 28.7184 268.403L54.1232 553.373C55.0047 563.066 61.5154 570.633 70.2784 573.304L76.2144 642.841C77.3185 653.886 87.2593 662.723 98.3056 662.723H376.649C387.694 662.723 397.635 653.886 398.74 642.841L404.676 573.311C413.398 570.673 419.727 563.286 419.727 554.477L445.132 268.403C446.236 261.775 444.028 255.148 439.609 250.73C438.097 248.841 436.453 247.348 434.683 246.19L440.934 176.727H452.863C465.014 176.727 474.955 166.786 474.955 154.636V110.453C474.952 98.3043 465.011 88.3634 452.861 88.3634ZM127.023 22.0912H347.931L397.635 88.3634H77.3185L127.023 22.0912ZM61.8545 242.998L56.3314 176.726H320.316V242.998H61.8545ZM376.648 640.631H98.3043L92.7812 574.359H382.17L376.648 640.631ZM424.142 265.089L398.738 551.164L397.634 552.268H77.3185L50.8096 266.193L320.316 265.396V282.761L279.449 323.629C277.239 325.838 276.135 328.046 276.135 331.36V430.768C276.135 437.396 280.553 441.813 287.18 441.813H375.544C382.171 441.813 386.589 437.396 386.589 430.768V331.361C386.589 328.048 385.485 325.838 383.275 323.63L342.408 282.762V265.332L424.142 265.089ZM331.361 302.643L364.497 335.779V419.723H298.225V335.779L331.361 302.643ZM411.993 242.998H342.408V176.726H417.516L411.993 242.998ZM452.861 154.636H442.92H32.032H22.0912V110.453H33.1361H441.815H452.86V154.636H452.861Z" fill="black"/>
</svg>
