<svg xmlns="http://www.w3.org/2000/svg" xmlns:xlink="http://www.w3.org/1999/xlink" version="1.1" width="1080" height="1080" viewBox="0 0 1080 1080" xml:space="preserve">
<desc>Created with Fabric.js 3.5.0</desc>
<defs>
</defs>
<rect x="0" y="0" width="100%" height="100%" fill="#ffffff"/>
<g transform="matrix(1.9176 0 0 1.9176 539.9975 539.9965)" id="658887">
<path style="stroke: none; stroke-width: 1; stroke-dasharray: none; stroke-linecap: butt; stroke-dashoffset: 0; stroke-linejoin: miter; stroke-miterlimit: 4; is-custom-font: none; font-file-url: none; fill: rgb(0,0,0); fill-rule: nonzero; opacity: 1;" vector-effect="non-scaling-stroke" transform=" translate(-255.001, -255)" d="M 421.4 67.267 h -21.333 l -46.08 -61.44 C 350.573 1.56 345.453 -1 340.333 -1 H 169.667 c -5.12 0 -10.24 2.56 -13.653 6.827 l -46.08 61.44 H 88.6 c -9.387 0 -17.067 7.68 -17.067 17.067 v 34.133 c 0 9.387 7.68 17.067 17.067 17.067 h 9.216 l 4.786 53.173 c -1.68 0.947 -3.22 2.257 -4.615 4 c -3.413 3.413 -5.12 8.533 -4.267 13.653 l 19.627 220.16 c 0.681 7.488 5.711 13.334 12.481 15.398 l 4.586 53.722 c 0.853 8.533 8.533 15.36 17.067 15.36 h 215.04 c 8.533 0 16.213 -6.827 17.067 -15.36 l 4.586 -53.717 c 6.738 -2.038 11.628 -7.745 11.628 -14.55 l 19.627 -221.013 c 0.853 -5.12 -0.853 -10.24 -4.267 -13.653 c -1.168 -1.46 -2.438 -2.613 -3.806 -3.508 l 4.83 -53.665 h 9.216 c 9.387 0 17.067 -7.68 17.067 -17.067 V 84.333 C 438.467 74.947 430.787 67.267 421.4 67.267 z M 169.667 16.067 h 170.667 l 38.4 51.2 H 131.267 L 169.667 16.067 z M 119.32 186.733 l -4.267 -51.2 H 319 v 51.2 H 119.32 z M 362.52 493.933 H 147.48 l -4.267 -51.2 h 223.573 L 362.52 493.933 z M 399.213 203.8 l -19.627 221.013 l -0.853 0.853 H 131.267 l -20.48 -221.013 L 319 204.037 v 13.416 l -31.573 31.573 c -1.707 1.707 -2.56 3.413 -2.56 5.973 v 76.8 c 0 5.12 3.413 8.533 8.533 8.533 h 68.267 c 5.12 0 8.533 -3.413 8.533 -8.533 V 255 c 0 -2.56 -0.853 -4.267 -2.56 -5.973 l -31.573 -31.573 v -13.466 L 399.213 203.8 L 399.213 203.8 z M 327.533 232.813 l 25.6 25.6 v 64.853 h -51.2 v -64.853 L 327.533 232.813 z M 389.827 186.733 h -53.76 v -51.2 h 58.027 L 389.827 186.733 z M 421.4 118.467 h -7.68 H 96.28 H 88.6 V 84.333 h 8.533 h 315.733 h 8.533 V 118.467 z" stroke-linecap="round"/>
</g>
</svg>